<?xml version="1.0" encoding="utf-8"?>
<!-- Generator: Adobe Illustrator 17.1.0, SVG Export Plug-In . SVG Version: 6.00 Build 0)  -->
<!DOCTYPE svg PUBLIC "-//W3C//DTD SVG 1.1 Tiny//EN" "http://www.w3.org/Graphics/SVG/1.1/DTD/svg11-tiny.dtd">
<svg version="1.1" baseProfile="tiny" id="Layer_1" xmlns="http://www.w3.org/2000/svg" xmlns:xlink="http://www.w3.org/1999/xlink"
	 x="0px" y="0px" viewBox="0 0 209.796 23.847" xml:space="preserve">
<g>
	<path d="M13.022-0.102v15.908c0,1.146-0.161,2.205-0.481,3.178c-0.321,0.974-0.813,1.821-1.478,2.543
		c-0.665,0.721-1.512,1.289-2.542,1.701s-2.256,0.619-3.677,0.619c-1.077,0-2.004-0.144-2.783-0.43
		C1.283,23.131,0.596,22.816,0,22.473l0.481-0.756c0.687,0.39,1.392,0.71,2.113,0.962c0.722,0.252,1.517,0.378,2.388,0.378
		c1.008,0,1.947-0.148,2.817-0.446c0.87-0.297,1.626-0.749,2.268-1.355c0.641-0.606,1.146-1.372,1.512-2.299
		c0.366-0.926,0.549-2.018,0.549-3.276V-0.102H13.022z"/>
	<path d="M32.676,17.697h-11.51l-1.993,5.91h-0.997l8.143-23.674h1.203l8.212,23.674h-0.962L32.676,17.697z M21.475,16.906h10.926
		l-5.498-16.08L21.475,16.906z"/>
	<path d="M58.685,1.926c-0.802,1.741-1.575,3.39-2.319,4.948c-0.745,1.558-1.466,3.058-2.165,4.501
		c-0.699,1.443-1.38,2.846-2.044,4.209c-0.665,1.363-1.317,2.731-1.958,4.106h-0.893L40.543,1.857v21.75H39.65V-0.067h0.962
		l9.14,18.692c1.42-3.024,2.909-6.139,4.466-9.346c1.558-3.207,3.058-6.322,4.501-9.346h0.859v23.674h-0.894V1.926z"/>
	<path d="M64.732-0.067h14.947v0.859H65.625v10.342H77.72v0.791H65.625v10.892h14.053v0.79H64.732V-0.067z"/>
	<path d="M91.017,23.812c-1.512,0-2.909-0.178-4.192-0.533c-1.283-0.354-2.497-0.853-3.642-1.495l0.481-0.79
		c1.076,0.596,2.239,1.083,3.487,1.46s2.548,0.567,3.9,0.567c0.962,0,1.867-0.114,2.714-0.344c0.847-0.229,1.592-0.573,2.233-1.032
		c0.641-0.458,1.151-1.027,1.529-1.703s0.567-1.462,0.567-2.357c0-0.986-0.195-1.801-0.584-2.443s-0.899-1.17-1.529-1.583
		c-0.63-0.413-1.357-0.734-2.182-0.964c-0.825-0.229-1.672-0.424-2.543-0.584c-0.916-0.161-1.833-0.373-2.749-0.637
		c-0.917-0.264-1.741-0.631-2.474-1.101c-0.733-0.47-1.329-1.067-1.787-1.79c-0.458-0.723-0.687-1.623-0.687-2.701
		c0-0.917,0.172-1.749,0.515-2.495c0.344-0.745,0.836-1.382,1.478-1.91c0.641-0.528,1.414-0.94,2.319-1.239
		c0.905-0.298,1.93-0.447,3.075-0.447c1.191,0,2.348,0.104,3.47,0.313c1.122,0.208,2.176,0.551,3.161,1.027l-0.412,0.825
		c-0.962-0.481-1.988-0.83-3.075-1.048c-1.088-0.218-2.205-0.327-3.35-0.327c-0.779,0-1.541,0.098-2.285,0.292
		c-0.745,0.195-1.409,0.511-1.993,0.947c-0.584,0.436-1.054,0.986-1.409,1.651c-0.355,0.666-0.533,1.48-0.533,2.443
		c0,0.894,0.2,1.646,0.602,2.253c0.4,0.608,0.928,1.107,1.581,1.497c0.653,0.39,1.396,0.706,2.233,0.946
		c0.835,0.241,1.689,0.442,2.56,0.602c1.122,0.207,2.153,0.465,3.092,0.774c0.939,0.31,1.735,0.711,2.388,1.205
		s1.162,1.101,1.529,1.824c0.366,0.723,0.55,1.6,0.55,2.632c0,0.964-0.189,1.83-0.567,2.598c-0.378,0.769-0.922,1.428-1.632,1.979
		s-1.558,0.969-2.542,1.256C93.331,23.669,92.231,23.812,91.017,23.812z"/>
	<path d="M115.412,13.092v10.514h-0.894V-0.067h8.982c1.097,0,2.051,0.195,2.863,0.584c0.811,0.39,1.485,0.899,2.022,1.529
		c0.537,0.63,0.937,1.34,1.2,2.13c0.263,0.79,0.395,1.586,0.395,2.388c0,0.802-0.143,1.592-0.428,2.371s-0.703,1.478-1.251,2.096
		c-0.549,0.619-1.223,1.117-2.022,1.495s-1.726,0.567-2.777,0.567H115.412z M115.412,0.792v11.511h8.006
		c0.756,0,1.471-0.126,2.147-0.379c0.675-0.252,1.276-0.626,1.804-1.12c0.527-0.494,0.945-1.097,1.254-1.809
		c0.309-0.712,0.463-1.516,0.463-2.413c0-0.896-0.154-1.7-0.463-2.412c-0.31-0.712-0.728-1.315-1.254-1.809
		c-0.527-0.494-1.128-0.878-1.804-1.154c-0.676-0.276-1.392-0.414-2.147-0.414H115.412z"/>
	<path d="M149.771,19.226c-0.389,0.951-0.937,1.77-1.646,2.457c-0.708,0.688-1.566,1.22-2.572,1.598
		c-1.006,0.378-2.126,0.567-3.36,0.567c-1.235,0-2.355-0.195-3.36-0.584c-1.006-0.389-1.863-0.928-2.572-1.615
		c-0.708-0.687-1.257-1.512-1.646-2.474c-0.389-0.962-0.583-2.015-0.583-3.161V-0.067h0.894v15.966c0,1.262,0.206,2.34,0.62,3.235
		c0.413,0.895,0.958,1.635,1.636,2.22c0.677,0.585,1.452,1.016,2.325,1.291c0.872,0.275,1.768,0.413,2.687,0.413
		c0.964,0,1.882-0.137,2.755-0.413c0.873-0.275,1.642-0.705,2.308-1.291c0.666-0.585,1.2-1.325,1.602-2.22
		c0.401-0.895,0.603-1.973,0.603-3.235V-0.067h0.893v16.149C150.354,17.228,150.16,18.275,149.771,19.226z"/>
	<path d="M156.367,23.606h-0.893V-0.067h9.002c1.1,0,2.067,0.195,2.903,0.584c0.836,0.39,1.529,0.899,2.079,1.529
		c0.549,0.63,0.962,1.34,1.237,2.13c0.275,0.79,0.412,1.586,0.412,2.388c0,0.665-0.103,1.335-0.309,2.01
		c-0.206,0.676-0.516,1.306-0.928,1.89s-0.934,1.094-1.563,1.529c-0.63,0.436-1.369,0.745-2.216,0.928
		c0.756,1.718,1.546,3.5,2.371,5.343c0.825,1.844,1.603,3.625,2.336,5.343h-0.997l-4.638-10.514h-8.796V23.606z M156.367,0.792
		v11.511h8.109c0.756,0,1.472-0.126,2.147-0.379c0.675-0.252,1.277-0.626,1.804-1.12c0.526-0.494,0.945-1.097,1.254-1.809
		c0.309-0.712,0.464-1.516,0.464-2.413c0-0.896-0.155-1.7-0.464-2.412c-0.309-0.712-0.728-1.315-1.254-1.809
		c-0.527-0.494-1.129-0.878-1.804-1.154c-0.676-0.276-1.392-0.414-2.147-0.414H156.367z"/>
	<path d="M175.574,23.606V-0.067h8.674c1.188,0,2.246,0.195,3.171,0.584c0.925,0.39,1.703,0.928,2.332,1.615
		c0.628,0.687,1.103,1.506,1.423,2.457c0.32,0.951,0.48,1.987,0.48,3.109v8.281c0,1.123-0.172,2.147-0.515,3.075
		s-0.84,1.73-1.491,2.405c-0.652,0.676-1.446,1.203-2.383,1.581s-1.988,0.567-3.154,0.567H175.574z M190.761,7.858
		c0-1.28-0.189-2.373-0.567-3.276c-0.378-0.903-0.871-1.635-1.478-2.195s-1.289-0.966-2.044-1.218
		c-0.756-0.251-1.5-0.377-2.233-0.377h-7.971v22.025h7.353c0.825,0,1.654-0.126,2.491-0.377c0.836-0.251,1.581-0.657,2.233-1.218
		s1.186-1.292,1.598-2.196c0.413-0.903,0.619-2.007,0.619-3.311V7.858z"/>
	<path d="M202.752,23.606h-0.894v-8.865l-7.146-14.809h0.996l6.597,13.744l6.528-13.744h0.962l-7.044,14.74V23.606z"/>
</g>
<g>
</g>
<g>
</g>
<g>
</g>
<g>
</g>
<g>
</g>
<g>
</g>
<g>
</g>
<g>
</g>
<g>
</g>
<g>
</g>
<g>
</g>
<g>
</g>
<g>
</g>
<g>
</g>
<g>
</g>
</svg>
